# xmcd CD database file
#
# Track frame offsets:
#	150
#	20400
#	40240
#	55477
#	74307
#	92790
#	113085
#	131987
#	147757
#	166585
#	183640
#	201595
#	220010
#	243187
#	262232
#	284365
#
# Disc length: 4100 seconds
#
# Revision: 0
# Processed by: cddbd v1.5PL3 Copyright (c) Steve Scherf et al.
# Submitted via: CDex 1.50
#
DISCID=f7100210
DTITLE=猫沢エミ - gentiane
DYEAR=2000
DGENRE=JPop
TTITLE0=The End Of The World
TTITLE1=目に見えないもの
TTITLE2=Concorde
TTITLE3=パイロット
TTITLE4=ミルクの冠
TTITLE5=Traffic-Strawberry-Jam
TTITLE6=Robot
TTITLE7=Used Kinoko
TTITLE8=恋する人生
TTITLE9=NO LOVE SONG
TTITLE10=Sweet Banana
TTITLE11=Merci
TTITLE12=Attends (French Version)
TTITLE13=羊飼いの少年へ
TTITLE14=あたしだけじゃダメかな?
TTITLE15=BROKEN SEWING MACHINE
EXTD=YEAR: 2000
EXTT0=
EXTT1=
EXTT2=
EXTT3=
EXTT4=
EXTT5=
EXTT6=
EXTT7=
EXTT8=
EXTT9=
EXTT10=
EXTT11=
EXTT12=
EXTT13=
EXTT14=
EXTT15=
PLAYORDER=
